<svg width="15" height="16" viewBox="0 0 15 16" fill="none" xmlns="http://www.w3.org/2000/svg">
<path d="M0.402961 8.00506C0.396338 8.08814 0.406872 8.17489 0.458269 8.26239C1.31655 9.72237 2.5553 11.0475 3.70229 12.2858C4.80388 13.4751 5.97887 14.7164 7.37812 15.5617C7.51712 15.9315 8.06072 16.191 8.3629 15.8192C9.52995 14.3833 10.787 13.0271 12.0145 11.6436C13.0224 10.5075 14.5916 9.27901 14.9921 7.78177C15.0117 7.70907 14.9926 7.63394 14.9599 7.56422C14.9523 7.52254 14.9402 7.48141 14.9127 7.44512C14.3973 6.76593 11.694 6.85273 10.4449 6.96869C10.4861 6.09332 10.3765 5.2013 10.3803 4.32667C10.3846 3.30289 10.4496 2.29033 10.5441 1.27124C10.5507 1.20071 10.5404 1.13765 10.5186 1.08157C10.1905 -0.681054 7.16823 0.176806 6.13209 0.449434C6.0417 0.473216 5.97965 0.519733 5.93073 0.573646C5.64323 0.538091 5.33163 0.69867 5.34058 1.07165C5.3883 3.06178 5.23709 5.06047 5.31734 7.04673C5.31808 7.06761 5.32741 7.0843 5.33105 7.10382C4.47912 7.10545 1.69066 7.11087 0.83861 7.10626C0.324181 7.10347 0.183511 7.67844 0.402961 8.00506Z" fill="#660625"/>
</svg>
