<svg width="17" height="16" viewBox="0 0 17 16" fill="none" xmlns="http://www.w3.org/2000/svg">
<path d="M15.597 7.99494C15.6037 7.91186 15.5931 7.8251 15.5417 7.73761C14.6834 6.27763 13.4447 4.95248 12.2977 3.71424C11.1961 2.52492 10.0211 1.28358 8.62188 0.43831C8.48288 0.0685427 7.93928 -0.191035 7.6371 0.180786C6.47005 1.61667 5.21299 2.97292 3.98547 4.35641C2.97761 5.49251 1.40841 6.72099 1.00789 8.21823C0.98833 8.29093 1.00742 8.36606 1.04008 8.43578C1.04767 8.47746 1.05975 8.51859 1.08729 8.55488C1.60269 9.23407 4.30601 9.14727 5.55514 9.03131C5.51393 9.90668 5.62354 10.7987 5.61974 11.6733C5.61536 12.6971 5.55041 13.7097 5.45595 14.7288C5.44932 14.7993 5.45963 14.8623 5.48139 14.9184C5.80949 16.6811 8.83177 15.8232 9.86791 15.5506C9.95831 15.5268 10.0204 15.4803 10.0693 15.4264C10.3568 15.4619 10.6684 15.3013 10.6594 14.9283C10.6117 12.9382 10.7629 10.9395 10.6827 8.95327C10.6819 8.93239 10.6726 8.9157 10.6689 8.89618C11.5209 8.89455 14.3093 8.88913 15.1614 8.89374C15.6758 8.89653 15.8165 8.32156 15.597 7.99494Z" fill="#660625"/>
</svg>
