<svg width="17" height="16" viewBox="0 0 17 16" fill="none" xmlns="http://www.w3.org/2000/svg">
<g clip-path="url(#clip0_2202_11785)">
<path d="M16.4106 3.04325C16.5418 2.78752 16.5197 2.49761 16.4048 2.25695C16.4372 1.98311 16.3655 1.70506 16.1063 1.4918C15.865 1.2933 15.6237 1.09468 15.3826 0.896139C14.9585 0.547188 14.4128 1.04069 14.0003 1.49978C12.1267 3.58474 10.0314 6.07799 8.00027 7.99978C6.49021 6.58915 5.01774 4.39308 3.50027 2.99978C2.9677 2.51064 2.15849 2.3662 1.82342 2.94891C1.33535 3.19116 0.939731 3.50697 0.612592 4.04598C0.456826 4.30279 0.85639 4.74202 1.00002 4.99976C1.97966 6.75618 3.94313 8.0786 5.50002 9.49976C5.29169 9.68624 4.71255 10.3172 4.50002 10.4998C2.40246 12.301 0.90262 13.108 3.52755 14.9549C3.56297 14.9799 3.59908 14.9743 3.63503 14.9889C3.68532 15.0121 3.73357 15.0285 3.78933 15.0376C3.80667 15.0383 3.82286 15.0412 3.83993 15.0399C3.89396 15.0443 3.94683 15.058 4.00159 15.0473C5.41285 14.7706 6.80927 13.2176 8.00002 11.9998C9.15997 13.1431 10.1418 14.3408 11.5 14.9889C11.8234 15.1433 12.3782 15.3949 12.6271 15.1791C13.0445 15.2106 13.4251 14.9512 13.6162 14.5784C13.6445 14.5609 13.6627 14.5509 13.6933 14.5318C14.3002 14.1527 14.3556 13.3976 13.9066 12.8772C12.8926 11.7021 11.8146 10.5851 10.7158 9.48787C12.6943 7.55464 15.1648 5.46964 16.4106 3.04325Z" fill="#660625"/>
</g>
<defs>
<clipPath id="clip0_2202_11785">
<rect width="16" height="16" fill="white" transform="translate(0.5)"/>
</clipPath>
</defs>
</svg>
