<svg width="17" height="16" viewBox="0 0 17 16" fill="none" xmlns="http://www.w3.org/2000/svg">
<g clip-path="url(#clip0_2202_11781)">
<path d="M15.8013 1.10826C15.0793 0.719489 14.274 1.46926 13.8019 1.91357C12.719 2.9688 11.8026 4.19065 10.7751 5.30142C9.63652 6.52327 8.58128 7.74511 7.41497 8.93924C6.74851 9.6057 6.02651 10.3277 5.5822 11.1608C4.58251 10.1888 3.72166 9.13358 2.61089 8.27278C1.80558 7.66185 0.472658 7.21754 0.500427 8.68932C0.555966 10.6054 2.24989 12.6604 3.49951 13.9655C4.02712 14.5209 4.72136 15.104 5.52666 15.1318C6.49859 15.1873 7.49828 14.021 8.08144 13.3823C9.10894 12.2716 9.94202 11.0219 10.8861 9.88339C12.108 8.38385 13.3576 6.91204 14.5517 5.38473C15.3014 4.44057 17.6618 2.10791 15.8013 1.10826Z" fill="#660625"/>
</g>
<defs>
<clipPath id="clip0_2202_11781">
<rect width="16" height="16" fill="white" transform="translate(16.5) rotate(90)"/>
</clipPath>
</defs>
</svg>
