<svg width="119" height="40" viewBox="0 0 119 40" fill="none" xmlns="http://www.w3.org/2000/svg">
<path d="M5.36719 6.2326H6.31103V26.6321H14.8628V27.5773H5.36719V6.2326Z" fill="white"/>
<path d="M17.5956 7.20836C17.5956 6.90344 17.691 6.63917 17.8816 6.41556C18.0914 6.19195 18.3488 6.08014 18.6539 6.08014C18.959 6.08014 19.2068 6.19195 19.3975 6.41556C19.6073 6.63917 19.7121 6.90344 19.7121 7.20836C19.7121 7.51329 19.6073 7.77755 19.3975 8.00117C19.2068 8.22478 18.959 8.33658 18.6539 8.33658C18.3488 8.33658 18.0914 8.22478 17.8816 8.00117C17.691 7.77755 17.5956 7.51329 17.5956 7.20836ZM17.9102 13.5508H19.3975V27.5773H17.9102V13.5508Z" fill="white"/>
<path d="M21.9837 13.5508H24.5578L28.276 23.4608L31.9942 13.5508H34.5683L28.276 28.6446L21.9837 13.5508Z" fill="white"/>
<path d="M42.2744 27.8822C40.9206 27.8822 39.7384 27.5773 38.7278 26.9675C37.7172 26.3576 36.9354 25.5038 36.3825 24.4061C35.8295 23.3084 35.553 22.0277 35.553 20.5641C35.553 19.0801 35.8295 17.7994 36.3825 16.722C36.9545 15.6243 37.7553 14.7705 38.785 14.1606C39.8146 13.5508 41.0254 13.2459 42.4174 13.2459C44.4957 13.2459 46.107 13.8862 47.251 15.1669C48.4141 16.4272 48.9957 18.1755 48.9957 20.4116C48.9957 20.5945 48.9862 20.7775 48.9671 20.9605C48.9671 21.1231 48.9671 21.2451 48.9671 21.3264H38.7278C38.8422 22.5461 39.214 23.4913 39.8433 24.1622C40.4915 24.833 41.3496 25.1684 42.4174 25.1684C44.0953 25.1684 45.3538 24.4264 46.1928 22.9425L48.8813 24.0707C47.5084 26.6117 45.3061 27.8822 42.2744 27.8822ZM42.3888 15.7463C40.3867 15.7463 39.195 16.844 38.8136 19.0394H45.6207C45.5635 18.0433 45.2394 17.2505 44.6483 16.661C44.0572 16.0512 43.304 15.7463 42.3888 15.7463Z" fill="white"/>
<path d="M50.1136 13.5508H52.3731V8.672H55.9769V13.5508H58.265V16.905H55.9769V27.5773H52.3731V16.905H50.1136V13.5508Z" fill="white"/>
<path d="M59.3217 20.5641C59.3217 19.1004 59.6363 17.8197 60.2655 16.722C60.9138 15.6243 61.7814 14.7705 62.8683 14.1606C63.9742 13.5508 65.2231 13.2459 66.615 13.2459C68.007 13.2459 69.2559 13.5508 70.3618 14.1606C71.4677 14.7705 72.3353 15.6243 72.9645 16.722C73.6128 17.8197 73.937 19.1004 73.937 20.5641C73.937 22.0074 73.6128 23.2881 72.9645 24.4061C72.3353 25.5038 71.4677 26.3576 70.3618 26.9675C69.2559 27.5773 68.007 27.8822 66.615 27.8822C65.2231 27.8822 63.9742 27.5773 62.8683 26.9675C61.7814 26.3576 60.9138 25.5038 60.2655 24.4061C59.6363 23.2881 59.3217 22.0074 59.3217 20.5641ZM63.1257 20.5641C63.1257 21.7431 63.4594 22.6985 64.1267 23.4303C64.8132 24.1622 65.6426 24.5281 66.615 24.5281C67.5875 24.5281 68.4074 24.1622 69.0748 23.4303C69.7612 22.6985 70.1044 21.7431 70.1044 20.5641C70.1044 19.3647 69.7612 18.4093 69.0748 17.6978C68.4074 16.9659 67.5875 16.6 66.615 16.6C65.6426 16.6 64.8132 16.9659 64.1267 17.6978C63.4594 18.4093 63.1257 19.3647 63.1257 20.5641Z" fill="white"/>
<path d="M80.8348 34.2857H76.516V13.5508H80.8348V15.8072C81.3115 14.9331 81.9217 14.2623 82.6653 13.7947C83.428 13.3069 84.3147 13.0629 85.3253 13.0629C86.393 13.0629 87.4036 13.3475 88.357 13.9167C89.3104 14.4656 90.0826 15.299 90.6737 16.4171C91.2839 17.5351 91.589 18.9175 91.589 20.5641C91.589 22.2107 91.2839 23.593 90.6737 24.711C90.0826 25.8088 89.3104 26.6422 88.357 27.2114C87.4036 27.7806 86.393 28.0652 85.3253 28.0652C84.3147 28.0652 83.428 27.8314 82.6653 27.3639C81.9217 26.876 81.3115 26.195 80.8348 25.3209V34.2857ZM87.0413 20.5641C87.0413 19.4663 86.7267 18.6227 86.0975 18.0332C85.4873 17.4437 84.7532 17.1489 83.8952 17.1489C83.4185 17.1489 82.9418 17.281 82.4651 17.5453C81.9884 17.7892 81.5975 18.1653 81.2925 18.6735C80.9874 19.1614 80.8348 19.7916 80.8348 20.5641C80.8348 21.3162 80.9874 21.9464 81.2925 22.4546C81.5975 22.9628 81.9884 23.349 82.4651 23.6133C82.9418 23.8572 83.4185 23.9792 83.8952 23.9792C84.7532 23.9792 85.4873 23.6845 86.0975 23.0949C86.7267 22.5054 87.0413 21.6618 87.0413 20.5641Z" fill="white"/>
<path d="M93.6829 8.45855C93.6829 7.62509 93.9594 6.96442 94.5123 6.47654C95.0653 5.96834 95.7231 5.71423 96.4858 5.71423C97.2676 5.71423 97.9254 5.96834 98.4593 6.47654C99.0123 6.96442 99.2888 7.62509 99.2888 8.45855C99.2888 9.27169 99.0123 9.93235 98.4593 10.4406C97.9254 10.9284 97.2676 11.1724 96.4858 11.1724C95.7231 11.1724 95.0653 10.9284 94.5123 10.4406C93.9594 9.93235 93.6829 9.27169 93.6829 8.45855ZM94.0833 13.5508H98.8884V27.5773H94.0833V13.5508Z" fill="white"/>
<path d="M107.133 20.5641C107.133 21.4992 107.419 22.2005 107.991 22.668C108.582 23.1356 109.268 23.3694 110.05 23.3694C110.679 23.3694 111.299 23.2372 111.909 22.973C112.519 22.6884 113.044 22.2208 113.482 21.5703V26.937C113.025 27.2012 112.5 27.4249 111.909 27.6078C111.337 27.7908 110.527 27.8822 109.478 27.8822C107.914 27.8822 106.523 27.5875 105.302 26.998C104.082 26.4084 103.119 25.5648 102.413 24.4671C101.727 23.3694 101.384 22.0684 101.384 20.5641C101.384 19.0394 101.727 17.7384 102.413 16.661C103.119 15.5633 104.082 14.7197 105.302 14.1301C106.523 13.5406 107.914 13.2459 109.478 13.2459C110.527 13.2459 111.337 13.3373 111.909 13.5203C112.5 13.7033 113.025 13.9065 113.482 14.1301V19.5273C113.044 18.8768 112.481 18.4194 111.795 18.1552C111.127 17.8909 110.546 17.7588 110.05 17.7588C109.268 17.7588 108.582 18.0332 107.991 18.582C107.419 19.1309 107.133 19.7916 107.133 20.5641Z" fill="white"/>
</svg>
